nColumns=28
nRows=53
DataType=double
version=3
OpenSimVersion=4.1
endheader
time	ground_force_1_vx	ground_force_1_vy	ground_force_1_vz	ground_force_1_px	ground_force_1_py	ground_force_1_pz	ground_force_1_mx	ground_force_1_my	ground_force_1_mz	ground_force_2_vx	ground_force_2_vy	ground_force_2_vz	ground_force_2_px	ground_force_2_py	ground_force_2_pz	ground_force_2_mx	ground_force_2_my	ground_force_2_mz	ground_force_3_vx	ground_force_3_vy	ground_force_3_vz	ground_force_3_px	ground_force_3_py	ground_force_3_pz	ground_force_3_mx	ground_force_3_my	ground_force_3_mz
10.09	0.664444	208.526	-34.7063	-0.27003	0.006	-0.414919	0	-0.084679	0	1.59722	242.255	38.3855	-0.266959	0.006	-0.780783	0	1.2833	0	0	0	0	0	0	0	0	0	0
10.1	0.366727	207.224	-34.5106	-0.26791	0.006	-0.414375	0	-0.074249	0	1.43061	241.991	38.2698	-0.265198	0.006	-0.781071	0	1.22068	0	0	0	0	0	0	0	0	0	0
10.11	0.0935384	206.324	-34.363	-0.265698	0.006	-0.413781	0	-0.066795	0	1.29537	242.18	38.2074	-0.263396	0.006	-0.781406	0	1.1615	0	0	0	0	0	0	0	0	0	0
10.12	-0.138106	205.807	-34.2597	-0.263422	0.006	-0.41314	0	-0.062534	0	1.18458	242.817	38.2114	-0.261554	0.006	-0.78179	0	1.10826	0	0	0	0	0	0	0	0	0	0
10.13	-0.31846	205.657	-34.1978	-0.261105	0.006	-0.41246	0	-0.061745	0	1.09192	243.881	38.29	-0.259678	0.006	-0.782219	0	1.06355	0	0	0	0	0	0	0	0	0	0
10.14	-0.446746	205.853	-34.1743	-0.258767	0.006	-0.411745	0	-0.06475	0	1.01442	245.341	38.4447	-0.257781	0.006	-0.782686	0	1.02955	0	0	0	0	0	0	0	0	0	0
10.15	-0.528029	206.377	-34.1859	-0.256424	0.006	-0.411004	0	-0.071947	0	0.953116	247.165	38.6711	-0.255882	0.006	-0.783178	0	1.00779	0	0	0	0	0	0	0	0	0	0
10.16	-0.5691	207.211	-34.2282	-0.254095	0.006	-0.410243	0	-0.083875	0	0.911806	249.33	38.9613	-0.254009	0.006	-0.783687	0	0.999094	0	0	0	0	0	0	0	0	0	0
10.17	-0.575495	208.344	-34.2966	-0.2518	0.006	-0.409472	0	-0.101256	0	0.894161	251.824	39.3063	-0.252189	0.006	-0.784202	0	1.00349	0	0	0	0	0	0	0	0	0	0
10.18	-0.548679	209.772	-34.3875	-0.249564	0.006	-0.408697	0	-0.124954	0	0.900824	254.64	39.6978	-0.250444	0.006	-0.784716	0	1.02043	0	0	0	0	0	0	0	0	0	0
10.19	-0.484432	211.499	-34.5008	-0.247414	0.006	-0.407928	0	-0.155856	0	0.928692	257.767	40.1289	-0.24879	0.006	-0.785227	0	1.04899	0	0	0	0	0	0	0	0	0	0
10.2	-0.375165	213.54	-34.6427	-0.245378	0.006	-0.40717	0	-0.194819	0	0.971861	261.184	40.5952	-0.247236	0.006	-0.78573	0	1.08799	0	0	0	0	0	0	0	0	0	0
10.21	-0.215424	215.917	-34.8282	-0.243476	0.006	-0.406425	0	-0.242325	0	1.02419	264.854	41.0959	-0.245784	0.006	-0.786226	0	1.13608	0	0	0	0	0	0	0	0	0	0
10.22	-0.00659164	218.659	-35.0796	-0.241714	0.006	-0.405693	0	-0.298232	0	1.08099	268.731	41.6336	-0.244432	0.006	-0.786717	0	1.19167	0	0	0	0	0	0	0	0	0	0
10.23	0.240657	221.787	-35.4232	-0.240089	0.006	-0.404969	0	-0.361736	0	1.13961	272.753	42.2094	-0.243175	0.006	-0.787204	0	1.25299	0	0	0	0	0	0	0	0	0	0
10.24	0.508829	225.309	-35.8845	-0.238586	0.006	-0.404248	0	-0.431463	0	1.20017	276.848	42.8196	-0.242005	0.006	-0.787686	0	1.31813	0	0	0	0	0	0	0	0	0	0
10.25	0.777994	229.214	-36.4832	-0.237185	0.006	-0.403525	0	-0.505663	0	1.26657	280.927	43.4523	-0.240917	0.006	-0.788159	0	1.38527	0	0	0	0	0	0	0	0	0	0
10.26	1.02939	233.468	-37.2282	-0.23586	0.006	-0.402798	0	-0.582348	0	1.34597	284.897	44.0879	-0.239906	0.006	-0.788619	0	1.4527	0	0	0	0	0	0	0	0	0	0
10.27	1.24762	238.017	-38.1154	-0.234584	0.006	-0.402068	0	-0.659505	0	1.44562	288.662	44.7021	-0.238961	0.006	-0.78906	0	1.5187	0	0	0	0	0	0	0	0	0	0
10.28	1.42017	242.791	-39.1271	-0.23333	0.006	-0.401339	0	-0.735235	0	1.56939	292.136	45.2695	-0.238066	0.006	-0.789479	0	1.58163	0	0	0	0	0	0	0	0	0	0
10.29	1.53651	247.702	-40.2335	-0.232076	0.006	-0.40062	0	-0.807909	0	1.71561	295.241	45.7689	-0.237201	0.006	-0.789875	0	1.6399	0	0	0	0	0	0	0	0	0	0
10.3	1.58894	252.653	-41.3952	-0.230802	0.006	-0.39992	0	-0.876328	0	1.8774	297.909	46.1845	-0.236343	0.006	-0.790249	0	1.69194	0	0	0	0	0	0	0	0	0	0
10.31	1.57402	257.543	-42.5688	-0.229498	0.006	-0.39925	0	-0.939817	0	2.04429	300.089	46.5072	-0.23547	0.006	-0.790604	0	1.73646	0	0	0	0	0	0	0	0	0	0
10.32	1.49442	262.269	-43.7112	-0.228158	0.006	-0.39862	0	-0.998259	0	2.2049	301.752	46.7342	-0.23456	0.006	-0.790943	0	1.77258	0	0	0	0	0	0	0	0	0	0
10.33	1.35813	266.744	-44.7854	-0.226783	0.006	-0.398038	0	-1.05201	0	2.34939	302.897	46.8698	-0.233596	0.006	-0.791269	0	1.80004	0	0	0	0	0	0	0	0	0	0
10.34	1.17567	270.895	-45.7648	-0.225376	0.006	-0.397508	0	-1.10171	0	2.46899	303.552	46.925	-0.232563	0.006	-0.791587	0	1.819	0	0	0	0	0	0	0	0	0	0
10.35	0.956592	274.667	-46.6338	-0.223939	0.006	-0.397031	0	-1.14803	0	2.55432	303.773	46.9177	-0.231452	0.006	-0.791901	0	1.82992	0	0	0	0	0	0	0	0	0	0
10.36	0.707867	278.023	-47.3876	-0.222476	0.006	-0.396605	0	-1.19156	0	2.59497	303.634	46.8716	-0.230254	0.006	-0.792217	0	1.83343	0	0	0	0	0	0	0	0	0	0
10.37	0.433619	280.944	-48.0301	-0.220987	0.006	-0.396224	0	-1.2326	0	2.58049	303.224	46.8144	-0.228965	0.006	-0.792539	0	1.83024	0	0	0	0	0	0	0	0	0	0
10.38	0.13573	283.428	-48.5709	-0.219476	0.006	-0.395884	0	-1.27118	0	2.50168	302.64	46.7746	-0.227582	0.006	-0.792874	0	1.82114	0	0	0	0	0	0	0	0	0	0
10.39	-0.1855	285.491	-49.0238	-0.217941	0.006	-0.395577	0	-1.3072	0	2.3521	301.977	46.7774	-0.226107	0.006	-0.793227	0	1.80697	0	0	0	0	0	0	0	0	0	0
10.4	-0.531041	287.164	-49.405	-0.216383	0.006	-0.3953	0	-1.3403	0	2.12883	301.326	46.8432	-0.224546	0.006	-0.793602	0	1.78858	0	0	0	0	0	0	0	0	0	0
10.41	-0.902432	288.491	-49.7306	-0.214805	0.006	-0.395047	0	-1.36999	0	1.83252	300.767	46.9862	-0.222908	0.006	-0.794003	0	1.76693	0	0	0	0	0	0	0	0	0	0
10.42	-1.30041	289.528	-50.0166	-0.213208	0.006	-0.394813	0	-1.39598	0	1.46762	300.364	47.2131	-0.221205	0.006	-0.794431	0	1.74324	0	0	0	0	0	0	0	0	0	0
10.43	-1.72378	290.34	-50.2767	-0.211596	0.006	-0.394597	0	-1.41831	0	1.04208	300.16	47.5232	-0.219451	0.006	-0.794882	0	1.71899	0	0	0	0	0	0	0	0	0	0
10.44	-2.16869	290.994	-50.5227	-0.209978	0.006	-0.394396	0	-1.43733	0	0.56644	300.176	47.9076	-0.217661	0.006	-0.795353	0	1.69579	0	0	0	0	0	0	0	0	0	0
10.45	-2.62927	291.558	-50.7641	-0.208364	0.006	-0.39421	0	-1.45364	0	0.0525975	300.408	48.3499	-0.215849	0.006	-0.795839	0	1.67538	0	0	0	0	0	0	0	0	0	0
10.46	-3.09883	292.098	-51.0088	-0.206765	0.006	-0.394038	0	-1.46794	0	-0.48702	300.832	48.8275	-0.214031	0.006	-0.796333	0	1.6595	0	0	0	0	0	0	0	0	0	0
10.47	-3.57101	292.673	-51.2631	-0.205195	0.006	-0.393883	0	-1.48097	0	-1.04035	301.405	49.3151	-0.212218	0.006	-0.796828	0	1.64959	0	0	0	0	0	0	0	0	0	0
10.48	-4.04126	293.329	-51.5322	-0.203662	0.006	-0.393743	0	-1.49331	0	-1.59729	302.074	49.7884	-0.210421	0.006	-0.797317	0	1.64653	0	0	0	0	0	0	0	0	0	0
10.49	-4.50803	294.097	-51.8198	-0.202174	0.006	-0.393617	0	-1.50534	0	-2.14999	302.778	50.2266	-0.208648	0.006	-0.797794	0	1.65056	0	0	0	0	0	0	0	0	0	0
10.5	-4.97251	294.987	-52.1266	-0.200734	0.006	-0.393502	0	-1.51724	0	-2.69273	303.45	50.615	-0.206901	0.006	-0.798254	0	1.66129	0	0	0	0	0	0	0	0	0	0
10.51	-5.43699	295.993	-52.4519	-0.199342	0.006	-0.393397	0	-1.52894	0	-3.22161	304.025	50.9454	-0.205182	0.006	-0.798698	0	1.6777	0	0	0	0	0	0	0	0	0	0
10.52	-5.90261	297.094	-52.7931	-0.197994	0.006	-0.3933	0	-1.54025	0	-3.73309	304.435	51.2154	-0.203489	0.006	-0.799124	0	1.69835	0	0	0	0	0	0	0	0	0	0
10.53	-6.36722	298.259	-53.1468	-0.196691	0.006	-0.393208	0	-1.55082	0	-4.22283	304.619	51.4263	-0.201818	0.006	-0.799531	0	1.7216	0	0	0	0	0	0	0	0	0	0
10.54	-6.82493	299.454	-53.5092	-0.195432	0.006	-0.393119	0	-1.5603	0	-4.68625	304.528	51.582	-0.200169	0.006	-0.799921	0	1.74576	0	0	0	0	0	0	0	0	0	0
10.55	-7.26729	300.646	-53.8763	-0.194218	0.006	-0.393032	0	-1.56831	0	-5.11953	304.138	51.6874	-0.198538	0.006	-0.800294	0	1.7693	0	0	0	0	0	0	0	0	0	0
10.56	-7.68518	301.799	-54.243	-0.193053	0.006	-0.392945	0	-1.57453	0	-5.52035	303.449	51.748	-0.196925	0.006	-0.800648	0	1.79109	0	0	0	0	0	0	0	0	0	0
10.57	-8.07015	302.883	-54.6026	-0.191937	0.006	-0.392859	0	-1.57859	0	-5.88855	302.484	51.7697	-0.195333	0.006	-0.800984	0	1.81046	0	0	0	0	0	0	0	0	0	0
10.58	-8.41537	303.869	-54.9465	-0.190875	0.006	-0.392774	0	-1.58023	0	-6.22642	301.288	51.758	-0.193766	0.006	-0.8013	0	1.82728	0	0	0	0	0	0	0	0	0	0
10.59	-8.71575	304.737	-55.2651	-0.189866	0.006	-0.392691	0	-1.57935	0	-6.53805	299.914	51.7179	-0.192229	0.006	-0.801596	0	1.84187	0	0	0	0	0	0	0	0	0	0
10.6	-8.96727	305.477	-55.5488	-0.188913	0.006	-0.392612	0	-1.57606	0	-6.82849	298.419	51.6536	-0.190727	0.006	-0.80187	0	1.85475	0	0	0	0	0	0	0	0	0	0
10.61	-9.16685	306.087	-55.7896	-0.188016	0.006	-0.392539	0	-1.57054	0	-7.1024	296.859	51.5688	-0.189266	0.006	-0.802119	0	1.86659	0	0	0	0	0	0	0	0	0	0
